<svg width="22" height="22" viewBox="0 0 22 22" fill="none" xmlns="http://www.w3.org/2000/svg">
<path d="M5.8323 4.14389V2.94691C6.08611 3.0301 6.24566 3.19755 6.24566 3.35284C6.24566 3.54306 6.39987 3.69732 6.59014 3.69732C6.7804 3.69732 6.93462 3.5431 6.93462 3.35284C6.93462 2.80353 6.47193 2.35605 5.8323 2.23638V2.18164C5.8323 1.99142 5.67808 1.83716 5.48782 1.83716C5.29755 1.83716 5.14334 1.99137 5.14334 2.18164V2.23638C4.50375 2.35609 4.04102 2.80357 4.04102 3.35284C4.04102 4.12035 4.65401 4.44291 5.14334 4.62858V5.8256C4.88952 5.74242 4.72998 5.57497 4.72998 5.41968C4.72998 5.22946 4.57576 5.0752 4.3855 5.0752C4.19523 5.0752 4.04102 5.22941 4.04102 5.41968C4.04102 5.96899 4.5037 6.41647 5.14334 6.53613V6.59088C5.14334 6.7811 5.29755 6.93536 5.48782 6.93536C5.67808 6.93536 5.8323 6.78114 5.8323 6.59088V6.53613C6.47189 6.41642 6.93462 5.96895 6.93462 5.41968C6.93462 4.65213 6.32162 4.32956 5.8323 4.14389ZM5.14338 3.87701C4.79997 3.7087 4.73002 3.56171 4.73002 3.35284C4.73002 3.19755 4.88956 3.0301 5.14338 2.94691V3.87701ZM5.8323 5.82556V4.89546C6.1757 5.06377 6.24566 5.21076 6.24566 5.41963C6.24566 5.57492 6.08611 5.74237 5.8323 5.82556Z" fill="#525353"/>
<path d="M11.0007 2.57202H8.06128C7.87105 2.57202 7.7168 2.72624 7.7168 2.9165C7.7168 3.10672 7.87101 3.26098 8.06128 3.26098H11.0007C11.1909 3.26098 11.3452 3.10677 11.3452 2.9165C11.3452 2.72628 11.1909 2.57202 11.0007 2.57202Z" fill="#525353"/>
<path d="M8.4287 5.51147H8.06128C7.87105 5.51147 7.7168 5.66569 7.7168 5.85596C7.7168 6.04622 7.87101 6.20044 8.06128 6.20044H8.4287C8.61893 6.20044 8.77318 6.04622 8.77318 5.85596C8.77318 5.66569 8.61893 5.51147 8.4287 5.51147Z" fill="#525353"/>
<path d="M14.6736 8.0835H4.3855C4.19527 8.0835 4.04102 8.23771 4.04102 8.42798C4.04102 8.61824 4.19523 8.77246 4.3855 8.77246H14.6736C14.8639 8.77246 15.0181 8.61824 15.0181 8.42798C15.0181 8.23771 14.8639 8.0835 14.6736 8.0835Z" fill="#525353"/>
<path d="M7.6968 10.2881H6.59448C6.40426 10.2881 6.25 10.4423 6.25 10.6326C6.25 10.8228 6.40421 10.977 6.59448 10.977H7.6968C7.88702 10.977 8.04128 10.8228 8.04128 10.6326C8.04128 10.4423 7.88707 10.2881 7.6968 10.2881Z" fill="#525353"/>
<path d="M5.12035 10.2881H4.3855C4.19527 10.2881 4.04102 10.4423 4.04102 10.6326C4.04102 10.8228 4.19523 10.977 4.3855 10.977H5.12035C5.31057 10.977 5.46483 10.8228 5.46483 10.6326C5.46483 10.4423 5.31057 10.2881 5.12035 10.2881Z" fill="#525353"/>
<path d="M7.6968 11.7578H6.59448C6.40426 11.7578 6.25 11.912 6.25 12.1023C6.25 12.2925 6.40421 12.4468 6.59448 12.4468H7.6968C7.88702 12.4468 8.04128 12.2926 8.04128 12.1023C8.04128 11.912 7.88707 11.7578 7.6968 11.7578Z" fill="#525353"/>
<path d="M5.12035 11.7578H4.3855C4.19527 11.7578 4.04102 11.912 4.04102 12.1023C4.04102 12.2925 4.19523 12.4468 4.3855 12.4468H5.12035C5.31057 12.4468 5.46483 12.2926 5.46483 12.1023C5.46483 11.912 5.31057 11.7578 5.12035 11.7578Z" fill="#525353"/>
<path d="M7.6968 13.2275H6.59448C6.40426 13.2275 6.25 13.3818 6.25 13.572C6.25 13.7623 6.40421 13.9165 6.59448 13.9165H7.6968C7.88702 13.9165 8.04128 13.7623 8.04128 13.572C8.04128 13.3818 7.88707 13.2275 7.6968 13.2275Z" fill="#525353"/>
<path d="M5.12035 13.2275H4.3855C4.19527 13.2275 4.04102 13.3818 4.04102 13.572C4.04102 13.7623 4.19523 13.9165 4.3855 13.9165H5.12035C5.31057 13.9165 5.46483 13.7623 5.46483 13.572C5.46483 13.3818 5.31057 13.2275 5.12035 13.2275Z" fill="#525353"/>
<path d="M7.6968 14.6973H6.59448C6.40426 14.6973 6.25 14.8515 6.25 15.0417C6.25 15.232 6.40421 15.3862 6.59448 15.3862H7.6968C7.88702 15.3862 8.04128 15.232 8.04128 15.0417C8.04128 14.8515 7.88707 14.6973 7.6968 14.6973Z" fill="#525353"/>
<path d="M5.12035 14.6973H4.3855C4.19527 14.6973 4.04102 14.8515 4.04102 15.0417C4.04102 15.232 4.19523 15.3862 4.3855 15.3862H5.12035C5.31057 15.3862 5.46483 15.232 5.46483 15.0417C5.46483 14.8515 5.31057 14.6973 5.12035 14.6973Z" fill="#525353"/>
<path d="M7.6968 16.167H6.59448C6.40426 16.167 6.25 16.3212 6.25 16.5115C6.25 16.7017 6.40421 16.856 6.59448 16.856H7.6968C7.88702 16.856 8.04128 16.7017 8.04128 16.5115C8.04128 16.3212 7.88707 16.167 7.6968 16.167Z" fill="#525353"/>
<path d="M5.12035 16.167H4.3855C4.19527 16.167 4.04102 16.3212 4.04102 16.5115C4.04102 16.7017 4.19523 16.856 4.3855 16.856H5.12035C5.31057 16.856 5.46483 16.7017 5.46483 16.5115C5.46483 16.3212 5.31057 16.167 5.12035 16.167Z" fill="#525353"/>
<path d="M12.0986 5.51147H11.7312C11.541 5.51147 11.3867 5.66569 11.3867 5.85596C11.3867 6.04622 11.5409 6.20044 11.7312 6.20044H12.0986C12.2888 6.20044 12.4431 6.04622 12.4431 5.85596C12.4431 5.66569 12.2888 5.51147 12.0986 5.51147Z" fill="#525353"/>
<path d="M13.9424 5.51147H13.5749C13.3847 5.51147 13.2305 5.66569 13.2305 5.85596C13.2305 6.04622 13.3847 6.20044 13.5749 6.20044H13.9424C14.1326 6.20044 14.2869 6.04622 14.2869 5.85596C14.2869 5.66569 14.1326 5.51147 13.9424 5.51147Z" fill="#525353"/>
<path d="M10.2646 5.51147H9.89721C9.70699 5.51147 9.55273 5.66569 9.55273 5.85596C9.55273 6.04622 9.70695 6.20044 9.89721 6.20044H10.2646C10.4549 6.20044 10.6091 6.04622 10.6091 5.85596C10.6091 5.66569 10.4549 5.51147 10.2646 5.51147Z" fill="#525353"/>
<path d="M11.7356 4.04175H8.06128C7.87105 4.04175 7.7168 4.19596 7.7168 4.38623C7.7168 4.57649 7.87101 4.73071 8.06128 4.73071H11.7356C11.9258 4.73071 12.0801 4.57649 12.0801 4.38623C12.0801 4.19596 11.9259 4.04175 11.7356 4.04175Z" fill="#525353"/>
<path d="M18.3492 9.5532H16.8565V4.01882C16.8565 3.92747 16.8203 3.83986 16.7556 3.77528L13.0812 0.100891C13.0167 0.0362656 12.929 0 12.8377 0H3.28441C2.68925 0 2.20508 0.484172 2.20508 1.07933V18.7161C2.20508 19.3112 2.68925 19.7954 3.28441 19.7954H8.81887V20.5532C8.81887 21.351 9.46791 22 10.2656 22H18.3492C19.1469 22 19.7959 21.351 19.7959 20.5532V11C19.796 10.2022 19.1469 9.5532 18.3492 9.5532ZM13.1822 1.17605L15.6805 3.67434H13.94C13.5221 3.67434 13.1822 3.33438 13.1822 2.9165V1.17605ZM8.81887 11V19.1064H3.28441C3.06914 19.1064 2.894 18.9313 2.894 18.716V1.07933C2.894 0.864059 3.06914 0.688918 3.28441 0.688918H12.4932V2.9165C12.4932 3.71426 13.1423 4.36326 13.94 4.36326H16.1676V9.55316H10.2657C9.46791 9.5532 8.81887 10.2022 8.81887 11ZM19.1071 20.5532C19.1071 20.9711 18.7671 21.3111 18.3492 21.3111H10.2657C9.8478 21.3111 9.50783 20.9711 9.50783 20.5532V11C9.50783 10.5821 9.8478 10.2421 10.2657 10.2421H18.3492C18.7671 10.2421 19.1071 10.5821 19.1071 11V20.5532Z" fill="#525353"/>
<path d="M17.6109 11.0229H10.9971C10.6045 11.0229 10.2852 11.3423 10.2852 11.7349V13.2046C10.2852 13.5972 10.6045 13.9165 10.9971 13.9165H17.6109C18.0034 13.9165 18.3228 13.5972 18.3228 13.2046V11.7349C18.3228 11.3423 18.0034 11.0229 17.6109 11.0229ZM17.6338 13.2046C17.6338 13.2173 17.6236 13.2275 17.6109 13.2275H10.9971C10.9844 13.2275 10.9741 13.2173 10.9741 13.2046V11.7349C10.9741 11.7222 10.9844 11.7119 10.9971 11.7119H17.6109C17.6235 11.7119 17.6338 11.7222 17.6338 11.7349V13.2046H17.6338Z" fill="#525353"/>
<path d="M11.7319 15.0647H10.9971C10.6045 15.0647 10.2852 15.384 10.2852 15.7766V16.5115C10.2852 16.904 10.6045 17.2234 10.9971 17.2234H11.7319C12.1245 17.2234 12.4438 16.904 12.4438 16.5115V15.7766C12.4438 15.384 12.1245 15.0647 11.7319 15.0647ZM11.7549 16.5115C11.7549 16.5242 11.7446 16.5344 11.732 16.5344H10.9971C10.9844 16.5344 10.9741 16.5242 10.9741 16.5115V15.7766C10.9741 15.764 10.9844 15.7537 10.9971 15.7537H11.7319C11.7446 15.7537 11.7549 15.764 11.7549 15.7766V16.5115H11.7549Z" fill="#525353"/>
<path d="M17.6108 15.0647H16.876C16.4834 15.0647 16.1641 15.384 16.1641 15.7766V16.5115C16.1641 16.904 16.4834 17.2234 16.876 17.2234H17.6108C18.0034 17.2234 18.3227 16.904 18.3227 16.5115V15.7766C18.3227 15.384 18.0034 15.0647 17.6108 15.0647ZM17.6338 16.5115C17.6338 16.5242 17.6235 16.5344 17.6109 16.5344H16.876C16.8633 16.5344 16.8531 16.5242 16.8531 16.5115V15.7766C16.8531 15.764 16.8633 15.7537 16.876 15.7537H17.6109C17.6235 15.7537 17.6338 15.764 17.6338 15.7766V16.5115Z" fill="#525353"/>
<path d="M14.6772 15.0647H13.9424C13.5498 15.0647 13.2305 15.384 13.2305 15.7766V16.5115C13.2305 16.904 13.5498 17.2234 13.9424 17.2234H14.6772C15.0698 17.2234 15.3891 16.904 15.3891 16.5115V15.7766C15.3891 15.384 15.0698 15.0647 14.6772 15.0647ZM14.7002 16.5115C14.7002 16.5242 14.6899 16.5344 14.6772 16.5344H13.9424C13.9297 16.5344 13.9194 16.5242 13.9194 16.5115V15.7766C13.9194 15.764 13.9297 15.7537 13.9424 15.7537H14.6772C14.6899 15.7537 14.7002 15.764 14.7002 15.7766V16.5115Z" fill="#525353"/>
<path d="M11.7319 18.0042H10.9971C10.6045 18.0042 10.2852 18.3235 10.2852 18.7161V19.4509C10.2852 19.8435 10.6045 20.1628 10.9971 20.1628H11.7319C12.1245 20.1628 12.4438 19.8435 12.4438 19.4509V18.7161C12.4438 18.3235 12.1245 18.0042 11.7319 18.0042ZM11.7549 19.4509C11.7549 19.4636 11.7446 19.4739 11.732 19.4739H10.9971C10.9844 19.4739 10.9741 19.4636 10.9741 19.4509V18.7161C10.9741 18.7034 10.9844 18.6931 10.9971 18.6931H11.7319C11.7446 18.6931 11.7549 18.7034 11.7549 18.7161V19.4509H11.7549Z" fill="#525353"/>
<path d="M17.6108 18.0042H16.876C16.4834 18.0042 16.1641 18.3235 16.1641 18.7161V19.4509C16.1641 19.8435 16.4834 20.1628 16.876 20.1628H17.6108C18.0034 20.1628 18.3227 19.8435 18.3227 19.4509V18.7161C18.3227 18.3235 18.0034 18.0042 17.6108 18.0042ZM17.6338 19.4509C17.6338 19.4636 17.6235 19.4739 17.6109 19.4739H16.876C16.8633 19.4739 16.8531 19.4636 16.8531 19.4509V18.7161C16.8531 18.7034 16.8633 18.6931 16.876 18.6931H17.6109C17.6235 18.6931 17.6338 18.7034 17.6338 18.7161V19.4509Z" fill="#525353"/>
<path d="M14.6772 18.0042H13.9424C13.5498 18.0042 13.2305 18.3235 13.2305 18.7161V19.4509C13.2305 19.8435 13.5498 20.1628 13.9424 20.1628H14.6772C15.0698 20.1628 15.3891 19.8435 15.3891 19.4509V18.7161C15.3891 18.3235 15.0698 18.0042 14.6772 18.0042ZM14.7002 19.4509C14.7002 19.4636 14.6899 19.4739 14.6772 19.4739H13.9424C13.9297 19.4739 13.9194 19.4636 13.9194 19.4509V18.7161C13.9194 18.7034 13.9297 18.6931 13.9424 18.6931H14.6772C14.6899 18.6931 14.7002 18.7034 14.7002 18.7161V19.4509Z" fill="#525353"/>
</svg>
