<svg width="24" height="24" viewBox="0 0 24 24" fill="none" xmlns="http://www.w3.org/2000/svg">
<path d="M12.5536 8.01778C11.9751 7.43709 11.2706 6.97828 10.4875 6.68043C10.1177 7.09134 9.86597 7.59159 9.76083 8.13403C9.73224 8.28028 9.71508 8.4269 9.70721 8.57282C9.77157 8.59495 9.83452 8.61857 9.89607 8.64538C10.5783 8.93465 11.1641 9.41887 11.5746 10.0289C11.9042 10.5166 12.1231 11.0813 12.1968 11.6931C12.2161 11.8458 12.2254 12.0014 12.2254 12.1602C12.2254 12.6901 12.1188 13.1894 11.9265 13.6449C11.6876 14.2067 11.3178 14.7037 10.8537 15.0903C10.755 15.1736 10.6513 15.2509 10.544 15.3234C9.93399 15.7354 9.20593 15.9742 8.41135 15.9742C7.88283 15.9742 7.38436 15.8673 6.92808 15.6753C6.24436 15.386 5.66077 14.9015 5.24883 14.2918C4.8383 13.6828 4.59943 12.953 4.59943 12.1602C4.59943 11.6306 4.70457 11.1321 4.89765 10.6754C5.15729 10.0626 5.57565 9.52762 6.1013 9.1282C6.09127 8.98978 6.08696 8.8514 6.08696 8.71303C6.08696 8.00217 6.19852 7.30842 6.41096 6.65259C5.59777 6.94832 4.8683 7.41853 4.27041 8.01787C3.21052 9.07457 2.55254 10.5453 2.55469 12.1602C2.55258 13.7755 3.21057 15.2462 4.27041 16.3033C5.15293 17.1872 6.32297 17.789 7.6246 17.9639V19.7897H4.91049V21.3624H7.6246V23.9999H9.198V21.3623H11.9143V19.7897H9.198V17.9638C10.5004 17.789 11.6718 17.1871 12.5536 16.3032C12.8483 16.0086 13.1108 15.6832 13.3389 15.3309C13.9289 14.4173 14.2715 13.3256 14.2701 12.1602C14.2701 11.8867 14.2508 11.6159 14.215 11.352C14.0355 10.0575 13.4333 8.89532 12.5536 8.01778Z" fill="#525353"/>
<path d="M16.3599 0V1.5727H18.76L16.2798 4.05295C15.2356 3.25697 13.9805 2.85464 12.7318 2.85577C11.2363 2.85464 9.73087 3.42858 8.58942 4.57219C7.77267 5.38678 7.24777 6.38691 7.01316 7.43719C7.0103 7.45003 7.00889 7.46292 7.00528 7.47366C6.996 7.51444 6.98813 7.55555 6.9803 7.59455C6.96595 7.67034 6.95311 7.74581 6.94097 7.82123C6.93309 7.86666 6.92667 7.91423 6.92166 7.95961C6.91238 8.02866 6.9045 8.09944 6.89878 8.17022C6.89522 8.211 6.89091 8.25216 6.8888 8.29289C6.88739 8.31328 6.88594 8.334 6.88453 8.35584C6.88092 8.39695 6.87952 8.43914 6.87806 8.47988C6.8752 8.55713 6.87305 8.63578 6.87305 8.71303C6.87305 8.77275 6.8752 8.83247 6.87666 8.89359C6.87952 8.95369 6.88313 9.01303 6.88594 9.07458L6.89522 9.20686C6.89522 9.2287 6.89878 9.25083 6.90019 9.27445C7.02609 10.581 7.59033 11.8584 8.58942 12.8557C9.19448 13.4611 9.90248 13.9074 10.6556 14.1924C10.8837 13.941 11.0697 13.65 11.2034 13.3367C11.3414 13.0081 11.4201 12.6605 11.4358 12.3018C10.9245 12.118 10.4468 11.8223 10.0348 11.4104C9.6622 11.036 9.3833 10.608 9.19805 10.1488C9.06577 9.82439 8.98064 9.48473 8.94342 9.14212C8.91914 8.93934 8.91342 8.73483 8.9227 8.53209C8.92556 8.48166 8.92912 8.43305 8.93198 8.38406C8.93555 8.34797 8.93841 8.31183 8.94483 8.27536C8.94483 8.26139 8.94769 8.24747 8.94914 8.23317C8.9527 8.19848 8.95702 8.16239 8.96344 8.12803C8.97131 8.08083 8.97919 8.03184 8.98847 7.98502C9.02991 7.7708 9.0893 7.56019 9.16795 7.35562C9.1823 7.31808 9.19655 7.28198 9.21375 7.24406C9.2295 7.20473 9.24661 7.16541 9.26522 7.12608C9.28097 7.08675 9.29958 7.04737 9.3203 7.0095C9.33745 6.97055 9.35817 6.93263 9.38039 6.89508C9.48408 6.7027 9.60642 6.5175 9.74658 6.34116C9.77517 6.30506 9.80522 6.26897 9.83456 6.23423C9.89963 6.16022 9.96544 6.08798 10.0362 6.0172C10.1242 5.92922 10.2136 5.84733 10.3065 5.77186C10.6112 5.51869 10.9452 5.32022 11.2956 5.17898C11.9829 4.90045 12.7395 4.82963 13.4612 4.96978C14.1835 5.10994 14.8672 5.45541 15.4294 6.01716C15.8034 6.39155 16.0802 6.81956 16.2654 7.27838C16.5458 7.96566 16.6166 8.72086 16.4764 9.44287C16.3348 10.1645 15.9886 10.8486 15.4294 11.4104C15.3064 11.533 15.1777 11.6464 15.0439 11.7468C15.0518 11.8852 15.0561 12.0236 15.0561 12.1602C15.0582 12.865 14.9459 13.5598 14.7307 14.2206C15.5138 13.9374 16.2482 13.4814 16.8741 12.8557C18.0162 11.7153 18.5919 10.2099 18.5905 8.71298C18.5919 7.46391 18.1893 6.21094 17.3918 5.16497L19.8721 2.68472V5.08594H21.4448V0H16.3599Z" fill="#525353"/>
</svg>
