<svg width="24" height="24" viewBox="0 0 24 24" fill="none" xmlns="http://www.w3.org/2000/svg">
<path d="M7.24688 13.7056H9.71953L8.57109 17.2962H5.29219C5.12109 17.2962 4.98047 17.1556 4.98047 16.9845C4.98047 16.9235 4.99922 16.8649 5.03203 16.8134L6.98672 13.8438C7.04531 13.7595 7.14375 13.7056 7.24688 13.7056Z" fill="white"/>
<path d="M9.48125 18.5455H5.29297C4.43281 18.5455 3.73438 17.847 3.73438 16.9869C3.73438 16.6822 3.82344 16.3845 3.99219 16.1291L5.94687 13.1595C6.23516 12.7212 6.72266 12.4587 7.24766 12.4587H11.4289L9.48125 18.5455ZM7.24766 13.7056C7.14219 13.7056 7.04609 13.7572 6.9875 13.8462L5.03281 16.8158C5 16.8673 4.98125 16.9259 4.98125 16.9869C4.98125 17.158 5.12187 17.2986 5.29297 17.2986H8.57188L9.72031 13.708H7.24766V13.7056Z" fill="#525353"/>
<path d="M10.6555 13.7056H13.2242L13.8172 17.2985H10.0625L10.6555 13.7056Z" fill="white"/>
<path d="M15.2855 18.5456H8.5918L9.59492 12.4612H14.2824L15.2855 18.5456ZM10.0613 17.2987H13.816L13.223 13.7057H10.6543L10.0613 17.2987Z" fill="#525353"/>
<path d="M14.498 13.7056H16.9707C17.0762 13.7056 17.1723 13.7571 17.2309 13.8462L19.1879 16.8157C19.2816 16.9587 19.2418 17.1532 19.0988 17.247C19.0473 17.2798 18.9887 17.2985 18.9277 17.2985H15.6488L14.498 13.7056Z" fill="white"/>
<path d="M18.9289 18.5455H14.7406L12.793 12.4587H16.9742C17.4992 12.4587 17.9867 12.7212 18.275 13.1595L20.2297 16.1291C20.4594 16.4759 20.5391 16.8931 20.4547 17.3009C20.3703 17.7087 20.1336 18.058 19.7844 18.2876C19.5312 18.4564 19.2336 18.5455 18.9289 18.5455ZM15.65 17.2986H18.9289C18.9898 17.2986 19.0484 17.2798 19.1 17.247C19.1938 17.1861 19.2242 17.097 19.2336 17.0501C19.243 17.0033 19.25 16.9095 19.1891 16.8158L17.2344 13.8486C17.1758 13.7595 17.0797 13.708 16.9742 13.708H14.4992L15.65 17.2986Z" fill="#525353"/>
<path d="M12.5172 14.9929C15.2922 12.5952 16.6797 10.4483 16.6797 8.55459C16.6797 5.57803 14.2727 3.5835 12.1094 3.5835C9.94609 3.5835 7.53906 5.57803 7.53906 8.55459C7.53906 10.4483 8.92656 12.5929 11.7039 14.9929C11.9359 15.1944 12.2828 15.1944 12.5172 14.9929Z" fill="#525353"/>
<path d="M12.1098 15.7665C11.8168 15.7665 11.5262 15.6657 11.2941 15.4641C8.34805 12.9188 6.91602 10.6571 6.91602 8.55474C6.91602 5.20786 9.60195 2.96021 12.1098 2.96021C14.6176 2.96021 17.3035 5.20786 17.3035 8.55474C17.3035 10.6571 15.8715 12.9188 12.923 15.4641C12.6934 15.6657 12.4004 15.7665 12.1098 15.7665ZM12.1098 4.20708C10.2418 4.20708 8.16289 5.99302 8.16289 8.55474C8.16289 10.2493 9.4918 12.2579 12.1098 14.5219C14.7301 12.2579 16.0566 10.2493 16.0566 8.55474C16.0566 5.99302 13.9777 4.20708 12.1098 4.20708Z" fill="#525353"/>
<path d="M9.82422 8.15625C9.82422 8.76231 10.065 9.34355 10.4935 9.7721C10.9221 10.2006 11.5033 10.4414 12.1094 10.4414C12.7154 10.4414 13.2967 10.2006 13.7252 9.7721C14.1538 9.34355 14.3945 8.76231 14.3945 8.15625C14.3945 7.55019 14.1538 6.96895 13.7252 6.5404C13.2967 6.11185 12.7154 5.87109 12.1094 5.87109C11.5033 5.87109 10.9221 6.11185 10.4935 6.5404C10.065 6.96895 9.82422 7.55019 9.82422 8.15625Z" fill="white"/>
<path d="M12.1098 11.0647C10.5066 11.0647 9.20117 9.75928 9.20117 8.15615C9.20117 6.55303 10.5066 5.24756 12.1098 5.24756C13.7129 5.24756 15.0184 6.55068 15.0184 8.15615C15.0184 9.76162 13.7129 11.0647 12.1098 11.0647ZM12.1098 6.49209C11.1934 6.49209 10.448 7.2374 10.448 8.15381C10.448 9.07022 11.1934 9.81553 12.1098 9.81553C13.0262 9.81553 13.7715 9.07022 13.7715 8.15381C13.7715 7.2374 13.0262 6.49209 12.1098 6.49209Z" fill="#525353"/>
</svg>
