<svg width="24" height="24" viewBox="0 0 24 24" fill="none" xmlns="http://www.w3.org/2000/svg">
<g clip-path="url(#clip0_5_5761)">
<path d="M19.3509 16.9076C19.1025 16.5162 17.2819 13.6803 15.726 12.1802C14.4278 10.9338 12.4848 10.8977 12.2645 10.8977C12.2444 10.8978 12.2243 10.8985 12.2046 10.9001H11.7335C11.5254 10.9001 9.66071 10.9356 8.29689 12.1632C6.61419 13.6797 4.75234 16.7383 4.62206 16.9538C3.63575 18.5133 3.03125 19.5275 3.03125 20.6551C3.03125 22.687 4.52 23.9999 6.82398 23.9999H17.1781C19.4815 23.9999 20.9698 22.6857 20.9698 20.6517C20.9698 19.5142 20.3638 18.5014 19.3749 16.9434C19.3671 16.9313 19.3591 16.9192 19.3509 16.9076ZM17.1781 22.4265H6.82398C5.99511 22.4265 4.60465 22.1964 4.60465 20.6551C4.60465 19.9965 5.03744 19.2402 5.9562 17.7879C5.95924 17.7831 5.96228 17.7782 5.96532 17.7732C5.98368 17.7428 7.8147 14.716 9.34992 13.3325C10.2861 12.4898 11.7202 12.4737 11.7341 12.4736H12.267C12.282 12.4736 12.2968 12.4732 12.3117 12.4724C12.5677 12.482 13.8577 12.5675 14.6353 13.314C16.1335 14.7586 18.0258 17.7559 18.0448 17.786C18.0533 17.7996 18.0621 17.8127 18.0714 17.8255C19.0486 19.3672 19.3965 20.0301 19.3965 20.6515C19.3964 22.1186 18.19 22.4265 17.1781 22.4265Z" fill="#525353"/>
<path d="M8.20352 8.9926C9.97926 8.9926 11.3701 7.01736 11.3701 4.49583C11.3703 1.97483 9.97926 0 8.20352 0C6.42799 0 5.03711 1.97483 5.03711 4.49583C5.03711 7.01746 6.42799 8.9926 8.20352 8.9926ZM8.20352 1.5734C8.95708 1.5734 9.79675 2.77359 9.79675 4.49583C9.79675 6.2186 8.95697 7.41921 8.20352 7.41921C7.45007 7.41921 6.6104 6.2186 6.6104 4.49583C6.61051 2.77359 7.45007 1.5734 8.20352 1.5734Z" fill="#525353"/>
<path d="M4.05669 14.4016C4.36623 14.4016 4.66193 14.3379 4.93916 14.2106C6.31976 13.5687 6.7042 11.554 5.81397 9.62356C5.12325 8.12862 3.84544 7.12427 2.63403 7.12427C2.32417 7.12427 2.02806 7.18815 1.75282 7.31486C0.370324 7.9546 -0.0153689 9.96971 0.87507 11.9035C1.56579 13.3976 2.84434 14.4014 4.05648 14.4016H4.05669ZM2.30372 11.2444C1.77128 10.088 1.92243 8.96997 2.41207 8.74351C2.4791 8.71267 2.55158 8.69767 2.63392 8.69767C3.12797 8.69767 3.90963 9.25339 4.38532 10.2829C4.91776 11.4376 4.76661 12.5557 4.27928 12.7823C4.21193 12.8132 4.13914 12.8283 4.05659 12.8283C3.56191 12.8282 2.7793 12.2726 2.30372 11.2444Z" fill="#525353"/>
<path d="M15.7974 8.9926C17.5725 8.9926 18.9631 7.01736 18.9631 4.49583C18.9631 1.97483 17.5725 0 15.7974 0C14.0206 0 12.6289 1.97483 12.6289 4.49583C12.6289 7.01746 14.0206 8.9926 15.7974 8.9926ZM15.7974 1.5734C16.5506 1.5734 17.3897 2.77359 17.3897 4.49583C17.3897 6.2186 16.5506 7.41921 15.7974 7.41921C15.043 7.41921 14.2023 6.2186 14.2023 4.49583C14.2023 2.77359 15.043 1.5734 15.7974 1.5734Z" fill="#525353"/>
<path d="M22.2491 7.31493C21.9745 7.1878 21.6777 7.12329 21.3668 7.12329C20.1572 7.12329 18.8798 8.12796 18.1886 9.62258C17.2944 11.5522 17.6785 13.5676 19.0664 14.2123C19.34 14.3378 19.6358 14.4015 19.9454 14.4015C21.1578 14.4015 22.4361 13.3975 23.1262 11.9028C24.0173 9.9703 23.6319 7.95499 22.2491 7.31493ZM21.6975 11.2435C21.2224 12.2727 20.4402 12.828 19.9454 12.828C19.8627 12.828 19.7899 12.813 19.7258 12.7836C19.2333 12.5549 19.0817 11.4373 19.6164 10.2835C20.0931 9.25273 20.8739 8.69658 21.3668 8.69658C21.4487 8.69658 21.521 8.71158 21.5878 8.74253C22.0791 8.97015 22.2304 10.0881 21.6975 11.2435Z" fill="#525353"/>
</g>
<defs>
<clipPath id="clip0_5_5761">
<rect width="24" height="24" fill="white"/>
</clipPath>
</defs>
</svg>
