<svg width="24" height="24" viewBox="0 0 24 24" fill="none" xmlns="http://www.w3.org/2000/svg">
<path d="M23.0929 15.9233H2.33522C1.04761 15.9233 0 16.9709 0 18.2586V19.8154C0 21.103 1.04761 22.1506 2.33522 22.1506H23.0929C23.5228 22.1506 23.8713 21.8021 23.8713 21.3722V16.7017C23.8713 16.2719 23.5228 15.9233 23.0929 15.9233ZM7.78413 20.5938H2.33522C1.90599 20.5938 1.55682 20.2446 1.55682 19.8154V18.2586C1.55682 17.8294 1.90604 17.4802 2.33522 17.4802H7.78413V20.5938ZM19.2009 20.5938H9.34094V17.4802H19.2008V20.5938H19.2009ZM22.3145 20.5938H20.7577V17.4802H22.3145V20.5938Z" fill="#252F31"/>
<path d="M22.9464 7.62552C22.0218 6.42707 22.0218 4.40216 22.9464 3.20375C23.23 2.83606 23.1619 2.30806 22.7942 2.02446C22.4265 1.74078 21.8985 1.80907 21.615 2.17662C20.2143 3.99233 20.2143 6.83694 21.615 8.65265C22.5395 9.85111 22.5395 11.876 21.615 13.0744C21.3313 13.4421 21.3994 13.9701 21.7671 14.2537C22.1346 14.5373 22.6627 14.4693 22.9464 14.1016C24.347 12.2858 24.347 9.44123 22.9464 7.62552Z" fill="#252F31"/>
<path d="M19.8389 7.62552C18.9144 6.42707 18.9144 4.4022 19.8389 3.20375C20.1226 2.83606 20.0545 2.30806 19.6868 2.02446C19.3191 1.74078 18.7911 1.80907 18.5075 2.17662C17.1069 3.99233 17.1069 6.83694 18.5075 8.65265C19.4321 9.85111 19.4321 11.876 18.5075 13.0744C18.2239 13.4421 18.292 13.9701 18.6597 14.2537C19.0271 14.5373 19.5553 14.4693 19.8389 14.1016C21.2396 12.2858 21.2396 9.44123 19.8389 7.62552Z" fill="#252F31"/>
</svg>
