<svg width="24" height="24" viewBox="0 0 24 24" fill="none" xmlns="http://www.w3.org/2000/svg">
<path d="M12.0002 7.50062C12.4082 7.50062 12.807 7.37965 13.1462 7.153C13.4854 6.92635 13.7497 6.6042 13.9059 6.22729C14.062 5.85038 14.1028 5.43565 14.0232 5.03552C13.9437 4.6354 13.7472 4.26786 13.4587 3.97939C13.1703 3.69092 12.8027 3.49447 12.4026 3.41488C12.0025 3.33529 11.5877 3.37614 11.2108 3.53226C10.8339 3.68838 10.5118 3.95276 10.2851 4.29197C10.0585 4.63117 9.9375 5.02997 9.9375 5.43793C9.9375 5.70881 9.99085 5.97703 10.0945 6.22729C10.1982 6.47755 10.3501 6.70494 10.5416 6.89648C10.9285 7.2833 11.4531 7.50062 12.0002 7.50062ZM12.0002 4.87538C12.1115 4.87538 12.2202 4.90838 12.3127 4.97019C12.4052 5.032 12.4773 5.11986 12.5199 5.22265C12.5625 5.32545 12.5736 5.43856 12.5519 5.54768C12.5302 5.65681 12.4766 5.75704 12.398 5.83572C12.3193 5.91439 12.2191 5.96797 12.1099 5.98968C12.0008 6.01138 11.8877 6.00024 11.7849 5.95766C11.6821 5.91509 11.5943 5.84298 11.5324 5.75047C11.4706 5.65796 11.4376 5.5492 11.4376 5.43793C11.4356 5.36316 11.4487 5.28874 11.4762 5.21915C11.5036 5.14957 11.5449 5.08625 11.5974 5.03301C11.65 4.97976 11.7127 4.93769 11.7819 4.90931C11.8512 4.88094 11.9254 4.86684 12.0002 4.86788V4.87538Z" fill="#525353"/>
<path d="M13.2604 7.8157H10.7402C10.0843 7.7766 9.43963 7.99826 8.9465 8.43238C8.45336 8.8665 8.15177 9.47791 8.10742 10.1334V13.2762C8.11778 13.6494 8.2439 14.0101 8.46832 14.3084C8.69274 14.6068 9.00436 14.8279 9.36004 14.9413V19.1417C9.35199 19.3309 9.38132 19.5198 9.44635 19.6976C9.51139 19.8754 9.61084 20.0387 9.73903 20.178C9.86722 20.3173 10.0216 20.43 10.1934 20.5096C10.3652 20.5892 10.551 20.6342 10.7402 20.6419H13.2604C13.4496 20.6342 13.6354 20.5892 13.8071 20.5096C13.9789 20.43 14.1333 20.3173 14.2615 20.178C14.3897 20.0387 14.4892 19.8754 14.5542 19.6976C14.6192 19.5198 14.6486 19.3309 14.6405 19.1417V14.9413C14.9962 14.8279 15.3078 14.6068 15.5322 14.3084C15.7567 14.0101 15.8828 13.6494 15.8931 13.2762V10.1334C15.8488 9.47791 15.5472 8.8665 15.0541 8.43238C14.5609 7.99826 13.9162 7.7766 13.2604 7.8157ZM10.8602 19.1342V13.5762H10.1101C9.81008 13.5762 9.60756 13.3962 9.60756 13.2762V10.1334C9.60756 9.69087 10.1251 9.31583 10.7402 9.31583H13.2604C13.8754 9.31583 14.393 9.69087 14.393 10.1334V13.2762C14.393 13.3962 14.1905 13.5762 13.8905 13.5762H13.1404V14.3263V19.1342H10.8602Z" fill="#525353"/>
<path d="M4.50058 8.07831C4.73942 8.07831 4.9729 8.00748 5.17149 7.87479C5.37008 7.74209 5.52486 7.55349 5.61627 7.33283C5.70767 7.11217 5.73158 6.86936 5.68499 6.6351C5.63839 6.40085 5.52338 6.18567 5.35449 6.01679C5.1856 5.8479 4.97043 5.73289 4.73617 5.68629C4.50192 5.63969 4.25911 5.66361 4.03845 5.75501C3.81778 5.84641 3.62918 6.00119 3.49649 6.19978C3.36379 6.39837 3.29297 6.63185 3.29297 6.8707C3.29297 7.19098 3.4202 7.49814 3.64667 7.72461C3.87314 7.95108 4.1803 8.07831 4.50058 8.07831Z" fill="#525353"/>
<path d="M5.40036 8.65575H3.60019C3.34102 8.63845 3.08098 8.67251 2.835 8.75597C2.58903 8.83942 2.36196 8.97064 2.16682 9.14208C1.97168 9.31352 1.81233 9.52181 1.6979 9.755C1.58347 9.98818 1.51621 10.2417 1.5 10.5009V12.6461C1.51556 12.9662 1.63318 13.2728 1.83564 13.5212C2.0381 13.7695 2.31476 13.9465 2.6251 14.0262V16.7715C2.62043 17.0813 2.73431 17.3812 2.94344 17.6099C3.15258 17.8386 3.44118 17.9787 3.75021 18.0016H5.31785C5.47752 17.9921 5.63374 17.9511 5.77754 17.881C5.92134 17.8109 6.04989 17.7132 6.15581 17.5933C6.26174 17.4734 6.34296 17.3338 6.3948 17.1825C6.44665 17.0312 6.46811 16.8711 6.45795 16.7115V13.9737C6.74945 13.8808 7.00554 13.7009 7.1919 13.4582C7.37825 13.2156 7.48595 12.9217 7.50055 12.6161V10.5009C7.48434 10.2417 7.41708 9.98818 7.30265 9.755C7.18822 9.52181 7.02887 9.31352 6.83373 9.14208C6.63859 8.97064 6.41152 8.83942 6.16554 8.75597C5.91957 8.67251 5.65953 8.63845 5.40036 8.65575ZM4.95782 16.5015H4.12524V12.5786H3.15015C3.10084 12.5904 3.04945 12.5904 3.00014 12.5786V10.5009C3.00014 10.3734 3.24016 10.1859 3.60019 10.1859H5.40036C5.76039 10.1859 6.00041 10.3734 6.00041 10.5009V12.5786C5.9511 12.5904 5.89971 12.5904 5.8504 12.5786H4.95782V16.5015Z" fill="#525353"/>
<path d="M19.5006 8.07831C19.7394 8.07831 19.9729 8.00748 20.1715 7.87479C20.3701 7.74209 20.5249 7.55349 20.6163 7.33283C20.7077 7.11217 20.7316 6.86936 20.685 6.6351C20.6384 6.40085 20.5234 6.18567 20.3545 6.01679C20.1856 5.8479 19.9704 5.73289 19.7362 5.68629C19.5019 5.63969 19.2591 5.66361 19.0384 5.75501C18.8178 5.84641 18.6292 6.00119 18.4965 6.19978C18.3638 6.39837 18.293 6.63185 18.293 6.8707C18.293 7.19098 18.4202 7.49814 18.6467 7.72461C18.8731 7.95108 19.1803 8.07831 19.5006 8.07831Z" fill="#525353"/>
<path d="M20.4004 8.65575H18.6002C18.341 8.63845 18.081 8.67251 17.835 8.75597C17.589 8.83942 17.362 8.97064 17.1668 9.14208C16.9717 9.31352 16.8123 9.52181 16.6979 9.755C16.5835 9.98818 16.5162 10.2417 16.5 10.5009V12.6461C16.5156 12.9662 16.6332 13.2728 16.8356 13.5212C17.0381 13.7695 17.3148 13.9465 17.6251 14.0262V16.7715C17.6204 17.0813 17.7343 17.3812 17.9434 17.6099C18.1526 17.8386 18.4412 17.9787 18.7502 18.0016H20.3028C20.4625 17.9921 20.6187 17.9511 20.7625 17.881C20.9063 17.8109 21.0349 17.7132 21.1408 17.5933C21.2467 17.4734 21.328 17.3338 21.3798 17.1825C21.4317 17.0312 21.4531 16.8711 21.443 16.7115V13.9737C21.7372 13.8833 21.9966 13.7045 22.1858 13.4617C22.375 13.2188 22.4849 12.9236 22.5005 12.6161V10.5009C22.4843 10.2417 22.4171 9.98818 22.3027 9.755C22.1882 9.52181 22.0289 9.31352 21.8337 9.14208C21.6386 8.97064 21.4115 8.83942 21.1655 8.75597C20.9196 8.67251 20.6595 8.63845 20.4004 8.65575ZM19.9578 16.5015H19.1252V12.5786H18.1502C18.1008 12.5904 18.0494 12.5904 18.0001 12.5786V10.5009C18.0001 10.3734 18.2402 10.1859 18.6002 10.1859H20.4004C20.7604 10.1859 21.0004 10.3734 21.0004 10.5009V12.5786C20.9511 12.5904 20.8997 12.5904 20.8504 12.5786H19.9578V16.5015Z" fill="#525353"/>
</svg>
