<svg width="24" height="24" viewBox="0 0 24 24" fill="none" xmlns="http://www.w3.org/2000/svg">
<g clip-path="url(#clip0_5_3863)">
<path d="M8.39977 24H6.79977C6.63977 24 6.47977 23.92 6.47977 23.76L4.87977 20.56C4.79977 20.4 4.79977 20.24 4.87977 20.08L5.35977 19.6L4.87977 19.12C4.71977 18.96 4.71977 18.72 4.87977 18.56L5.35977 18.08L4.87977 17.6C4.71977 17.44 4.71977 17.2 4.87977 17.04L5.43977 16.48L4.87977 15.76C4.79977 15.6 4.79977 15.52 4.79977 15.44V11.92C4.79977 11.68 4.95977 11.52 5.19977 11.52C5.43977 11.52 5.59977 11.68 5.59977 11.92V15.28L6.31977 16.16C6.47977 16.32 6.39977 16.56 6.31977 16.72L5.83977 17.2L6.31977 17.68C6.47977 17.84 6.47977 18.08 6.31977 18.24L5.83977 18.72L6.31977 19.2C6.47977 19.36 6.47977 19.6 6.31977 19.76L5.75977 20.32L7.03977 23.2H8.15977L9.59977 20.32V12C9.59977 11.76 9.75977 11.6 9.99977 11.6C10.2398 11.6 10.3998 11.76 10.3998 12V20.4C10.3998 20.48 10.3998 20.56 10.3198 20.56L8.71977 23.76C8.71977 23.92 8.55977 24 8.39977 24Z" fill="#525353"/>
<path d="M8.4 24C8.16 24 8 23.84 8 23.6V12.4C8 12.16 8.16 12 8.4 12C8.64 12 8.8 12.16 8.8 12.4V23.6C8.8 23.84 8.64 24 8.4 24ZM8.4 4.8C8.16 4.8 8 4.56 8 4.4C8 4.32 8.48 0 12.8 0C16.96 0 17.6 3.52 17.6 3.52C17.6 3.76 17.52 3.92 17.28 4C17.04 4 16.88 3.92 16.8 3.68C16.8 3.52 16.24 0.8 12.8 0.8C9.2 0.8 8.8 4.32 8.8 4.48C8.8 4.64 8.64 4.8 8.4 4.8ZM20.4 15.2C20.16 15.2 20 15.04 20 14.8V13.6H18C17.84 13.6 17.68 13.52 17.68 13.36C17.68 13.2 17.6 13.04 17.68 12.96L19.28 10.56C19.44 10.4 19.68 10.32 19.84 10.48C20 10.64 20.08 10.88 19.92 11.04L18.72 12.8H20.4C20.64 12.8 20.8 12.96 20.8 13.2V14.8C20.8 15.04 20.64 15.2 20.4 15.2Z" fill="#525353"/>
<path d="M17.2 20.8001C14.32 20.8001 12 18.4801 12 15.6001V9.68005C12 9.60005 12 9.52005 12.08 9.44005C12.56 8.64005 12.8 7.68005 12.8 6.80005C12.8 6.00005 12.64 5.28005 12.32 4.56005C12.24 4.48005 12.24 4.32005 12.32 4.24005C13.04 2.24005 14.96 0.800049 17.2 0.800049C20.08 0.800049 22.4 3.12005 22.4 6.00005V15.6001C22.4 18.4801 20.08 20.8001 17.2 20.8001ZM12.8 9.76005V15.6001C12.8 18.0001 14.8 20 17.2 20C19.6 20 21.6 18.0001 21.6 15.6001V6.00005C21.6 3.60005 19.6 1.60005 17.2 1.60005C15.36 1.60005 13.76 2.72005 13.12 4.40005C13.44 5.20005 13.6 6.00005 13.6 6.80005C13.6 7.84005 13.36 8.88005 12.8 9.76005Z" fill="#525353"/>
<path d="M7.60059 12.8C4.32059 12.8 1.60059 10.08 1.60059 6.80005C1.60059 3.52005 4.32059 0.800049 7.60059 0.800049C10.8806 0.800049 13.6006 3.52005 13.6006 6.80005C13.6006 10.08 10.8806 12.8 7.60059 12.8ZM7.60059 1.60005C4.72059 1.60005 2.40059 3.92005 2.40059 6.80005C2.40059 9.68005 4.72059 12 7.60059 12C10.4806 12 12.8006 9.68005 12.8006 6.80005C12.8006 3.92005 10.4806 1.60005 7.60059 1.60005Z" fill="#525353"/>
<path d="M7.59961 7.19995C6.47961 7.19995 5.59961 6.31995 5.59961 5.19995C5.59961 4.07995 6.47961 3.19995 7.59961 3.19995C8.71961 3.19995 9.59961 4.07995 9.59961 5.19995C9.59961 6.31995 8.71961 7.19995 7.59961 7.19995ZM7.59961 3.99995C6.95961 3.99995 6.39961 4.55995 6.39961 5.19995C6.39961 5.83995 6.95961 6.39995 7.59961 6.39995C8.23961 6.39995 8.79961 5.83995 8.79961 5.19995C8.79961 4.55995 8.23961 3.99995 7.59961 3.99995ZM15.1996 15.2H13.9996C13.7596 15.2 13.5996 15.04 13.5996 14.8C13.5996 14.56 13.7596 14.4 13.9996 14.4H15.1996C15.6796 14.4 15.9996 14.08 15.9996 13.6C15.9996 13.12 15.6796 12.8 15.1996 12.8H13.9996C13.7596 12.8 13.5996 12.64 13.5996 12.4V10.8C13.5996 10.56 13.7596 10.4 13.9996 10.4H16.3996C16.6396 10.4 16.7996 10.56 16.7996 10.8C16.7996 11.04 16.6396 11.2 16.3996 11.2H14.3996V12H15.1996C16.0796 12 16.7996 12.72 16.7996 13.6C16.7996 14.48 16.0796 15.2 15.1996 15.2ZM17.1996 5.59995C16.5596 5.59995 15.9996 5.03995 15.9996 4.39995C15.9996 3.75995 16.5596 3.19995 17.1996 3.19995C17.8396 3.19995 18.3996 3.75995 18.3996 4.39995C18.3996 5.03995 17.8396 5.59995 17.1996 5.59995ZM17.1996 3.99995C16.9596 3.99995 16.7996 4.15995 16.7996 4.39995C16.7996 4.63995 16.9596 4.79995 17.1996 4.79995C17.4396 4.79995 17.5996 4.63995 17.5996 4.39995C17.5996 4.15995 17.4396 3.99995 17.1996 3.99995Z" fill="#525353"/>
</g>
<defs>
<clipPath id="clip0_5_3863">
<rect width="24" height="24" fill="white"/>
</clipPath>
</defs>
</svg>
