<svg width="24" height="24" viewBox="0 0 24 24" fill="none" xmlns="http://www.w3.org/2000/svg">
<path fill-rule="evenodd" clip-rule="evenodd" d="M11.7211 12.789C12.7601 12.789 13.6025 11.9467 13.6025 10.9077C13.6025 9.86865 12.7601 9.02637 11.7211 9.02637C10.6822 9.02637 9.83984 9.86865 9.83984 10.9077C9.83984 11.9467 10.6822 12.789 11.7211 12.789Z" stroke="#525353" stroke-width="1.88131" stroke-linecap="round" stroke-linejoin="round"/>
<path fill-rule="evenodd" clip-rule="evenodd" d="M11.7207 4.00928C11.3569 4.00942 10.9977 4.09128 10.6697 4.24883L4.1955 8.25099V16.1174C4.14219 18.3793 5.93078 20.2571 8.19264 20.3139H15.2488C17.5106 20.2571 19.2992 18.3793 19.2459 16.1174V8.25099L12.7717 4.24883C12.4438 4.09128 12.0845 4.00942 11.7207 4.00928Z" stroke="#525353" stroke-width="1.88131" stroke-linecap="round" stroke-linejoin="round"/>
<path d="M9.89045 14.6458C9.53074 14.2711 8.93525 14.2588 8.56048 14.6185C8.18565 14.9782 8.17341 15.5737 8.53311 15.9486L9.89045 14.6458ZM14.9073 15.9486C15.267 15.5737 15.2548 14.9782 14.8799 14.6185C14.5052 14.2588 13.9097 14.2711 13.55 14.6458L14.9073 15.9486ZM4.68949 9.05127C5.13142 8.77816 5.26827 8.1985 4.99517 7.75658C4.72205 7.31465 4.1424 7.17779 3.70048 7.45091L4.68949 9.05127ZM2.44627 8.22601C2.00434 8.49912 1.8675 9.07876 2.1406 9.5207C2.41372 9.96263 2.99337 10.0995 3.43529 9.82637L2.44627 8.22601ZM19.74 7.45091C19.298 7.17779 18.7184 7.31465 18.4452 7.75658C18.1721 8.1985 18.309 8.77816 18.7509 9.05127L19.74 7.45091ZM20.0051 9.82637C20.4471 10.0995 21.0266 9.96263 21.2998 9.5207C21.573 9.07876 21.436 8.49912 20.9942 8.22601L20.0051 9.82637ZM8.53311 15.9486C9.36619 16.8165 10.5172 17.3072 11.7202 17.3072V15.4259C11.0295 15.4259 10.3687 15.1442 9.89045 14.6458L8.53311 15.9486ZM11.7202 17.3072C12.9232 17.3072 14.0742 16.8165 14.9073 15.9486L13.55 14.6458C13.0717 15.1442 12.4109 15.4259 11.7202 15.4259V17.3072ZM3.70048 7.45091L2.44627 8.22601L3.43529 9.82637L4.68949 9.05127L3.70048 7.45091ZM18.7509 9.05127L20.0051 9.82637L20.9942 8.22601L19.74 7.45091L18.7509 9.05127Z" fill="#525353"/>
</svg>
