<svg width="29" height="28" viewBox="0 0 29 28" fill="none" xmlns="http://www.w3.org/2000/svg">
<g filter="url(#filter0_d_5_3869)">
<path d="M21.1806 9.64774C22.4615 9.64774 23.4998 8.60938 23.4998 7.32851C23.4998 6.04764 22.4615 5.00928 21.1806 5.00928C19.8997 5.00928 18.8613 6.04764 18.8613 7.32851C18.8613 8.60938 19.8997 9.64774 21.1806 9.64774Z" fill="#008000"/>
<path d="M10.2168 6.03418H16.8369C17.0873 6.03418 17.2776 6.23007 17.2812 6.46875L17.2705 6.57324L17.2695 6.57812C17.1787 7.04092 17.176 7.52088 17.2568 8.00977L17.2969 8.21973V8.2207C17.5963 9.60311 18.667 10.7415 20.0146 11.1416L20.2881 11.2119H20.2891C20.7843 11.3175 21.2663 11.331 21.7275 11.2705L21.9238 11.2402L21.9297 11.2393C22.2208 11.1829 22.4746 11.398 22.4746 11.6719V15.7285C22.4744 17.839 20.7697 19.5437 18.6592 19.5439H17.3857C17.0388 19.5439 16.7208 19.6874 16.4912 19.9277L16.3984 20.0361L16.3975 20.0371L15.1318 21.7158V21.7168C14.9168 22.0035 14.6597 22.1162 14.4336 22.1162C14.2358 22.1162 14.0146 22.0298 13.8184 21.8164L13.7354 21.7168V21.7158L12.4697 20.0371H12.4688C12.3543 19.8825 12.1914 19.7637 12.0332 19.6846C11.8721 19.604 11.6759 19.5439 11.4814 19.5439H10.2168C8.10603 19.5439 6.39258 17.8305 6.39258 15.7197V9.8584C6.39258 7.74763 8.10602 6.03418 10.2168 6.03418ZM11.0605 11.9961C10.3689 11.9961 9.82442 12.5534 9.82422 13.2314C9.82422 13.9096 10.3688 14.4678 11.0605 14.4678C11.7521 14.4676 12.2959 13.9095 12.2959 13.2314C12.2957 12.551 11.741 11.9963 11.0605 11.9961ZM14.4336 11.9961C13.742 11.9961 13.1975 12.5534 13.1973 13.2314C13.1973 13.9096 13.7419 14.4678 14.4336 14.4678C15.1253 14.4678 15.6699 13.9096 15.6699 13.2314C15.6697 12.5509 15.1142 11.9961 14.4336 11.9961ZM17.8066 11.9961C17.1152 11.9963 16.5715 12.5536 16.5713 13.2314C16.5713 13.9095 17.1151 14.4676 17.8066 14.4678C18.4984 14.4678 19.043 13.9096 19.043 13.2314C19.0428 12.5509 18.4873 11.9961 17.8066 11.9961Z" stroke="#525353" stroke-width="0.785442"/>
</g>
<defs>
<filter id="filter0_d_5_3869" x="-4.54286" y="-5.54286" width="39.0857" height="39.0857" filterUnits="userSpaceOnUse" color-interpolation-filters="sRGB">
<feFlood flood-opacity="0" result="BackgroundImageFix"/>
<feColorMatrix in="SourceAlpha" type="matrix" values="0 0 0 0 0 0 0 0 0 0 0 0 0 0 0 0 0 0 127 0" result="hardAlpha"/>
<feMorphology radius="0.9" operator="dilate" in="SourceAlpha" result="effect1_dropShadow_5_3869"/>
<feOffset dy="0.12"/>
<feGaussianBlur stdDeviation="2.115"/>
<feComposite in2="hardAlpha" operator="out"/>
<feColorMatrix type="matrix" values="0 0 0 0 0 0 0 0 0 0 0 0 0 0 0 0 0 0 0.12 0"/>
<feBlend mode="normal" in2="BackgroundImageFix" result="effect1_dropShadow_5_3869"/>
<feBlend mode="normal" in="SourceGraphic" in2="effect1_dropShadow_5_3869" result="shape"/>
</filter>
</defs>
</svg>
