<svg width="24" height="24" viewBox="0 0 24 24" fill="none" xmlns="http://www.w3.org/2000/svg">
<path d="M12.0002 2.6438C12.2763 2.64315 12.5497 2.69866 12.8037 2.80696C13.0577 2.91527 13.287 3.0741 13.4777 3.2738L20.8315 10.9388C21.3752 11.5125 21.424 12.0413 21.2927 12.33C21.218 12.4975 21.0948 12.6388 20.9391 12.7357C20.7834 12.8326 20.6022 12.8807 20.419 12.8738H18.919V19.125C18.919 20.3663 18.0302 21.375 16.939 21.375H7.03145C5.9402 21.375 5.05145 20.3625 5.05145 19.125V12.9038L3.9527 12.8775H3.54395C3.36254 12.8799 3.18436 12.8294 3.03119 12.7322C2.87801 12.635 2.75648 12.4952 2.68145 12.33C2.5577 12.0525 2.6027 11.5238 3.1502 10.9538L10.5002 3.27755C10.6928 3.07385 10.9255 2.91234 11.1837 2.80325C11.4419 2.69417 11.7199 2.63987 12.0002 2.6438ZM12.0002 1.5188C11.5725 1.51873 11.1493 1.60543 10.7561 1.77366C10.3629 1.9419 10.008 2.18816 9.7127 2.49755L2.3402 10.1625C1.40645 11.1338 1.37645 12.1538 1.65395 12.7875C1.81297 13.142 2.06938 13.444 2.39335 13.6585C2.71732 13.8729 3.09552 13.9909 3.48395 13.9988H3.92645V19.125C3.92645 21 5.3177 22.5 7.03145 22.5H16.9465C18.6602 22.5 20.0515 21 20.0515 19.125V14.0025H20.4865C20.8772 13.9985 21.2585 13.8817 21.5845 13.6662C21.9104 13.4506 22.1672 13.1455 22.324 12.7875C22.6052 12.1613 22.5715 11.1413 21.6415 10.1625L14.2765 2.49755C13.9832 2.18866 13.6302 1.94262 13.2389 1.77436C12.8476 1.60611 12.4261 1.51916 12.0002 1.5188Z" fill="#525353"/>
<path d="M12 8.25C12.7417 8.25 13.4667 8.46993 14.0834 8.88199C14.7001 9.29404 15.1807 9.87971 15.4645 10.5649C15.7484 11.2502 15.8226 12.0042 15.6779 12.7316C15.5333 13.459 15.1761 14.1272 14.6517 14.6517C14.1272 15.1761 13.459 15.5333 12.7316 15.6779C12.0042 15.8226 11.2502 15.7484 10.5649 15.4645C9.87972 15.1807 9.29405 14.7001 8.88199 14.0834C8.46994 13.4667 8.25 12.7417 8.25 12C8.25 11.0054 8.64509 10.0516 9.34835 9.34835C10.0516 8.64509 11.0054 8.25 12 8.25ZM12 7.5C11.11 7.5 10.24 7.76392 9.49994 8.25839C8.75991 8.75285 8.18314 9.45566 7.84254 10.2779C7.50195 11.1002 7.41283 12.005 7.58647 12.8779C7.7601 13.7508 8.18868 14.5526 8.81802 15.182C9.44736 15.8113 10.2492 16.2399 11.1221 16.4135C11.995 16.5872 12.8998 16.4981 13.7221 16.1575C14.5443 15.8169 15.2471 15.2401 15.7416 14.5001C16.2361 13.76 16.5 12.89 16.5 12C16.5 10.8065 16.0259 9.66193 15.182 8.81802C14.3381 7.97411 13.1935 7.5 12 7.5Z" fill="#525353"/>
<path d="M11.1037 10.3538C11.2349 10.3545 11.3637 10.3898 11.4771 10.4559C11.5905 10.5221 11.6845 10.6168 11.7498 10.7307C11.8151 10.8446 11.8494 10.9736 11.8492 11.1049C11.849 11.2362 11.8143 11.3651 11.7487 11.4788C11.7155 11.5381 11.689 11.601 11.6699 11.6663C11.6047 11.6854 11.5418 11.7118 11.4824 11.745C11.3689 11.8124 11.2395 11.8486 11.1074 11.85C10.9344 11.8505 10.7669 11.7894 10.6349 11.6775C10.5163 11.5792 10.4308 11.4467 10.3901 11.298C10.3494 11.1494 10.3555 10.9918 10.4075 10.8467C10.4596 10.7017 10.555 10.5762 10.6809 10.4873C10.8068 10.3984 10.9571 10.3505 11.1112 10.35L11.1037 10.3538ZM11.1037 9.60376C10.7951 9.60393 10.4941 9.69924 10.2417 9.87671C9.98933 10.0542 9.79779 10.3052 9.69324 10.5955C9.58868 10.8858 9.57619 11.2012 9.65747 11.4989C9.73875 11.7965 9.90984 12.0619 10.1474 12.2588C10.4142 12.4827 10.7516 12.6049 11.0999 12.6038C11.3641 12.601 11.6228 12.5286 11.8499 12.3938L12.9524 13.5188L13.7474 14.3175C13.7824 14.3525 13.8239 14.3802 13.8696 14.3991C13.9153 14.4181 13.9642 14.4278 14.0137 14.4278C14.0631 14.4278 14.1121 14.4181 14.1578 14.3991C14.2035 14.3802 14.245 14.3525 14.2799 14.3175C14.3149 14.2825 14.3426 14.241 14.3615 14.1954C14.3805 14.1497 14.3902 14.1007 14.3902 14.0513C14.3902 14.0018 14.3805 13.9528 14.3615 13.9072C14.3426 13.8615 14.3149 13.82 14.2799 13.785L13.7474 13.2525L14.2799 12.7238C14.3147 12.6887 14.3422 12.6472 14.3608 12.6015C14.3795 12.5558 14.389 12.5069 14.3887 12.4575C14.3884 12.3833 14.3661 12.3109 14.3246 12.2494C14.2831 12.1879 14.2244 12.1401 14.1557 12.112C14.0871 12.0839 14.0117 12.0768 13.939 12.0916C13.8663 12.1064 13.7997 12.1424 13.7474 12.195L13.2187 12.7238L12.3862 11.895C12.5175 11.6676 12.5868 11.4098 12.5872 11.1473C12.5876 10.8847 12.519 10.6267 12.3884 10.3989C12.2579 10.1711 12.0698 9.98164 11.843 9.84934C11.6162 9.71705 11.3587 9.64659 11.0962 9.64501L11.1037 9.60376Z" fill="#525353"/>
</svg>
