<svg width="24" height="24" viewBox="0 0 24 24" fill="none" xmlns="http://www.w3.org/2000/svg">
<path d="M20.8924 7.32981V3.68186C20.8924 2.60823 20.0212 1.73706 18.9476 1.73706H5.05242C3.97866 1.73706 3.10748 2.60823 3.10748 3.68186V7.32976L0 15.344V18.2704C0 19.401 0.913734 20.3149 2.04445 20.3149H3.44531L3.66928 22.2632H6.38227L6.6097 20.3149H17.3903L17.6177 22.2632H20.3271L20.5545 20.3149H21.9555C23.0827 20.3149 24 19.401 24 18.2704V15.344L20.8924 7.32981ZM4.17412 3.68186C4.17412 3.19853 4.5653 2.80717 5.05242 2.80375H18.9476C19.4312 2.80722 19.8257 3.19853 19.8257 3.68186V7.25162H18.1014C18.1049 7.24089 18.1049 7.23048 18.1049 7.2197V5.81519C18.1049 5.21069 17.6142 4.72004 17.0097 4.72004H13.504C12.8995 4.72004 12.4088 5.21069 12.4088 5.81519V7.2197C12.4088 7.23048 12.4088 7.24089 12.4125 7.25162H11.5875C11.5912 7.24089 11.5912 7.23048 11.5912 7.2197V5.81519C11.5912 5.21069 11.1004 4.72004 10.4961 4.72004H6.99033C6.38583 4.72004 5.89519 5.21069 5.89519 5.81519V7.2197C5.89519 7.23048 5.89519 7.24089 5.89866 7.25162H4.17412V3.68186ZM4.13873 7.62147L4.10316 7.60722H5.96616H11.52H12.48H18.0337H19.8576L22.7983 15.1913H1.20173L4.13873 7.62147ZM22.9333 18.2704C22.9333 18.8107 22.4958 19.2482 21.9555 19.2482H20.6792H17.2657H6.73425H3.32086H2.04445C1.50398 19.2482 1.06669 18.8107 1.06669 18.2704V15.5468H22.9334V18.2704H22.9333Z" fill="#525353"/>
</svg>
