<svg width="24" height="24" viewBox="0 0 24 24" fill="none" xmlns="http://www.w3.org/2000/svg">
<path d="M6.32324 10.1389H8.1299C8.1299 7.22199 10.3481 5.6145 10.3481 5.6145C8.08269 5.87902 6.32324 7.80206 6.32324 10.1389Z" fill="#525353"/>
<path d="M17.3682 17.7071L17.1664 17.566C16.8599 17.3516 16.659 17.0142 16.6155 16.6412L16.4233 14.9856C16.4236 14.9614 16.4242 14.9378 16.4242 14.9098C16.4239 14.8056 16.4201 14.682 16.3913 14.5441C16.3612 14.4078 16.3073 14.244 16.1629 14.0958C15.9462 13.8771 15.6511 13.754 15.3434 13.754L15.3233 13.7543L14.8836 13.7625V13.7969C14.8676 13.8004 14.853 13.8021 14.8366 13.8065C14.7302 13.8357 14.6156 13.8847 14.5071 13.9588C14.3983 14.0328 14.2971 14.1305 14.2096 14.2481L14.1916 14.2726L13.4839 15.5543C13.36 15.7617 13.2432 15.8722 13.1411 15.9343C13.0379 15.9962 12.9412 16.0201 12.812 16.0212C12.6813 16.0218 12.5186 15.9886 12.3365 15.9273L7.42815 13.799L7.41062 13.7932C7.29531 13.7538 7.17629 13.7349 7.05906 13.7349C6.71377 13.7349 6.37998 13.8991 6.17012 14.191L6.16866 14.1927L6.16098 14.2038L6.1614 14.2041C6.02509 14.3948 5.95787 14.6185 5.95801 14.8378C5.95759 15.156 6.09915 15.4733 6.36456 15.6879L6.36395 15.6885L12.0724 20.3972L12.1185 20.4202L15.1081 21.9058L14.9419 22.2149L18.1701 24L20.7391 19.2271L17.5107 17.4423L17.3682 17.7071ZM15.5332 21.1166L12.5629 19.6404L6.93179 14.9952L6.9286 14.9928C6.87901 14.9532 6.85449 14.8972 6.85393 14.8377C6.85421 14.7968 6.86541 14.7589 6.89096 14.7231L6.89227 14.7213L6.89781 14.7134C6.93587 14.6603 6.99638 14.6309 7.05906 14.6306L7.11624 14.6399L12.0209 16.7666L12.0378 16.7724C12.2806 16.8546 12.5375 16.9167 12.8119 16.917C13.074 16.9182 13.3545 16.8543 13.6065 16.6998C13.8596 16.5461 14.076 16.3128 14.2556 16.0095L14.2594 16.0027L14.941 14.7686C14.969 14.7335 14.9926 14.712 15.011 14.6995C15.043 14.6785 15.0676 14.6694 15.1186 14.6612C15.1687 14.6534 15.2406 14.6534 15.3389 14.6525L15.3549 14.6522C15.4133 14.6551 15.4675 14.6779 15.5113 14.7161C15.5145 14.7274 15.518 14.7432 15.5204 14.7639C15.5259 14.803 15.5282 14.8549 15.5282 14.9097C15.5282 14.938 15.5277 14.9672 15.5268 14.9972L15.5262 15.0287L15.7254 16.7446C15.7986 17.3719 16.1357 17.9386 16.6537 18.3005L16.6686 18.3107L16.9406 18.5014L15.5332 21.1166ZM19.0651 19.9396C19.0663 20.2076 18.8505 20.4257 18.5822 20.4269C18.3145 20.4283 18.0958 20.212 18.0946 19.9439C18.0935 19.6759 18.3102 19.4578 18.5778 19.4563C18.8461 19.4552 19.064 19.6715 19.0651 19.9396Z" fill="#525353"/>
<path d="M12.0008 2.3392C12.6468 2.3392 13.1705 1.81542 13.1705 1.16977C13.1705 0.523781 12.6468 0 12.0008 0C11.3548 0 10.8311 0.523781 10.8311 1.16972C10.831 1.81542 11.3548 2.3392 12.0008 2.3392Z" fill="#525353"/>
<path d="M20.9599 11.1987H20.6784L20.6712 11.0867C20.3813 6.52789 16.5728 2.95658 12.0007 2.9563C7.42912 2.95658 3.62052 6.52789 3.33051 11.0867L3.32338 11.1987H3.0418C2.36671 11.1987 1.81738 11.7479 1.81738 12.423C1.81738 13.0982 2.36671 13.6473 3.0418 13.6473H20.9599C21.6351 13.6473 22.1842 13.0981 22.1842 12.423C22.1841 11.7479 21.635 11.1987 20.9599 11.1987ZM4.28221 11.1687L4.29215 11.0398C4.43432 9.20656 5.2296 7.47983 6.5316 6.17708C7.99298 4.7166 9.93538 3.91199 12.0007 3.9117C14.0661 3.91199 16.0086 4.7166 17.4702 6.17708C18.7721 7.48011 19.5674 9.20685 19.7093 11.0398L19.7193 11.1687H4.28221Z" fill="#525353"/>
</svg>
