<svg width="20" height="20" viewBox="0 0 20 20" fill="none" xmlns="http://www.w3.org/2000/svg">
<path d="M8.97422 15.25C7.73314 15.25 6.51994 14.8819 5.48802 14.1924C4.4561 13.5029 3.65182 12.5229 3.17688 11.3763C2.70194 10.2297 2.57767 8.96799 2.81979 7.75076C3.06192 6.53353 3.65955 5.41543 4.53713 4.53786C5.4147 3.66028 6.5328 3.06265 7.75003 2.82053C8.96726 2.5784 10.229 2.70267 11.3756 3.17761C12.5222 3.65255 13.5022 4.45683 14.1917 5.48875C14.8812 6.52067 15.2492 7.73388 15.2492 8.97495C15.2492 9.799 15.0869 10.615 14.7716 11.3763C14.4562 12.1376 13.994 12.8294 13.4113 13.412C12.8286 13.9947 12.1369 14.4569 11.3756 14.7723C10.6142 15.0876 9.79827 15.25 8.97422 15.25ZM8.97422 3.95829C7.98531 3.95829 7.01862 4.25153 6.19637 4.80094C5.37412 5.35035 4.73326 6.13124 4.35482 7.04487C3.97639 7.9585 3.87737 8.96383 4.07029 9.93374C4.26322 10.9036 4.73942 11.7946 5.43869 12.4938C6.13795 13.1931 7.02886 13.6693 7.99877 13.8622C8.96867 14.0551 9.97401 13.9561 10.8876 13.5777C11.8013 13.1992 12.5822 12.5584 13.1316 11.7361C13.681 10.9139 13.9742 9.94719 13.9742 8.95829C13.9742 7.6322 13.4474 6.36044 12.5098 5.42275C11.5721 4.48507 10.3003 3.95829 8.97422 3.95829Z" fill="#252F31"/>
<path d="M16.6663 17.2918C16.5842 17.2922 16.5028 17.2762 16.427 17.2447C16.3511 17.2132 16.2823 17.1669 16.2246 17.1085L12.783 13.6668C12.6726 13.5483 12.6125 13.3916 12.6153 13.2297C12.6182 13.0678 12.6838 12.9133 12.7983 12.7988C12.9128 12.6843 13.0673 12.6187 13.2292 12.6158C13.3911 12.613 13.5478 12.6731 13.6663 12.7835L17.108 16.2251C17.225 16.3423 17.2908 16.5012 17.2908 16.6668C17.2908 16.8324 17.225 16.9913 17.108 17.1085C17.0503 17.1669 16.9815 17.2132 16.9056 17.2447C16.8298 17.2762 16.7484 17.2922 16.6663 17.2918Z" fill="#252F31"/>
</svg>
